<svg width="25" height="25" viewBox="0 0 25 25" fill="none" xmlns="http://www.w3.org/2000/svg">
<path d="M5.8999 20.835C5.8999 21.3654 6.11061 21.8741 6.48569 22.2492C6.86076 22.6243 7.36947 22.835 7.8999 22.835H17.8999C18.4303 22.835 18.939 22.6243 19.3141 22.2492C19.6892 21.8741 19.8999 21.3654 19.8999 20.835V8.83496H21.8999V6.83496H17.8999V4.83496C17.8999 4.30453 17.6892 3.79582 17.3141 3.42075C16.939 3.04567 16.4303 2.83496 15.8999 2.83496H9.8999C9.36947 2.83496 8.86076 3.04567 8.48569 3.42075C8.11061 3.79582 7.8999 4.30453 7.8999 4.83496V6.83496H3.8999V8.83496H5.8999V20.835ZM9.8999 4.83496H15.8999V6.83496H9.8999V4.83496ZM8.8999 8.83496H17.8999V20.835H7.8999V8.83496H8.8999Z" fill="#EA5455"/>
<path d="M9.8999 10.835H11.8999V18.835H9.8999V10.835ZM13.8999 10.835H15.8999V18.835H13.8999V10.835Z" fill="#EA5455"/>
</svg>
